PathFileType	4	(X/Y/Z)	/home/nbianco/projects/addbio/data/HamnerRunning2013/Processed/subject10//results/MarkerData/run400.trc
DataRate	CameraRate	NumFrames	NumMarkers	Units	OrigDataRate	OrigDataStartFrame	OrigNumFrames
100	100	8	42	m	100	78	210
Frame#	Time	C7			CLAV			LACR			LASI			LCAL			LFAradius			LFAsuperior			LFAulna			LLEL			LMEL			LMT5			LPSI			LTB1			LTB2			LTB3			LTH1			LTH2			LTH3			LTOE			LUA1			LUA2			LUA3			RACR			RASI			RCAL			RFAradius			RFAsuperior			RFAulna			RLEL			RMEL			RMT5			RPSI			RTB1			RTB2			RTB3			RTH1			RTH2			RTH3			RTOE			RUA1			RUA2			RUA3		
		X1	Y1	Z1	X2	Y2	Z2	X3	Y3	Z3	X4	Y4	Z4	X5	Y5	Z5	X6	Y6	Z6	X7	Y7	Z7	X8	Y8	Z8	X9	Y9	Z9	X10	Y10	Z10	X11	Y11	Z11	X12	Y12	Z12	X13	Y13	Z13	X14	Y14	Z14	X15	Y15	Z15	X16	Y16	Z16	X17	Y17	Z17	X18	Y18	Z18	X19	Y19	Z19	X20	Y20	Z20	X21	Y21	Z21	X22	Y22	Z22	X23	Y23	Z23	X24	Y24	Z24	X25	Y25	Z25	X26	Y26	Z26	X27	Y27	Z27	X28	Y28	Z28	X29	Y29	Z29	X30	Y30	Z30	X31	Y31	Z31	X32	Y32	Z32	X33	Y33	Z33	X34	Y34	Z34	X35	Y35	Z35	X36	Y36	Z36	X37	Y37	Z37	X38	Y38	Z38	X39	Y39	Z39	X40	Y40	Z40	X41	Y41	Z41	X42	Y42	Z42

79	1.55	0.86751	1.45268	-0.322163	1.00628	1.35056	-0.303005	0.927786	1.43091	-0.475034	0.923057	0.928091	-0.444993	0.447865	0.554645	-0.364973	1.03314	1.11757	-0.490789	0.949769	1.15564	-0.603328	1.04732	1.07772	-0.542581	0.843531	1.15861	-0.660084	0.80491	1.1291	-0.602355	0.330669	0.438384	-0.482033	0.758107	0.985235	-0.380553	0.719112	0.399931	-0.409732	0.705586	0.426972	-0.442929	0.52876	0.444279	-0.396306	0.861053	0.729726	-0.488	0.896009	0.617699	-0.481345	0.82595	0.523198	-0.469282	0.334445	0.369656	-0.396338	0.875478	1.32654	-0.570344	0.814934	1.2675	-0.557626	0.865452	1.23587	-0.622998	0.91128	1.41997	-0.175834	0.914924	0.954519	-0.21004	0.894892	0.108411	-0.340857	0.859524	1.06598	-0.0906375	0.758498	1.1377	-0.0246894	0.808662	1.02031	-0.0714902	0.674623	1.21848	-0.0315455	0.652277	1.20635	-0.105346	1.059	0.0510358	-0.239451	0.745639	0.992123	-0.285761	1.05776	0.377348	-0.274812	0.998125	0.281019	-0.231908	1.01816	0.198767	-0.314921	0.912929	0.727576	-0.147649	1.00604	0.679524	-0.164238	0.993287	0.574273	-0.187116	1.11655	0.0676305	-0.338041	0.822187	1.34817	-0.0801302	0.743433	1.322	-0.122749	0.73395	1.2591	-0.0524669
80	1.56	0.868571	1.44942	-0.32217	1.00528	1.34527	-0.304428	0.926009	1.42564	-0.476711	0.921308	0.92221	-0.441875	0.477032	0.556132	-0.367188	1.02087	1.10197	-0.497565	0.936476	1.1487	-0.605251	1.03057	1.06445	-0.551487	0.829002	1.1565	-0.658974	0.791358	1.12786	-0.600634	0.363689	0.437513	-0.485435	0.754279	0.97933	-0.381116	0.747005	0.3968	-0.407159	0.727962	0.431168	-0.442246	0.55772	0.443473	-0.3957	0.870803	0.725067	-0.487408	0.911939	0.615489	-0.47984	0.848635	0.517377	-0.469099	0.363259	0.371311	-0.397781	0.869601	1.32248	-0.570205	0.807301	1.264	-0.553596	0.85415	1.2326	-0.622569	0.910158	1.4144	-0.175961	0.908308	0.954355	-0.205825	0.855668	0.109136	-0.339466	0.875938	1.05283	-0.0874311	0.776086	1.122	-0.0194395	0.826571	1.00554	-0.0658306	0.689043	1.19985	-0.0219621	0.662739	1.18578	-0.0939364	1.0193	0.0515628	-0.238118	0.740643	0.986797	-0.28925	1.04179	0.370385	-0.274794	0.981046	0.279846	-0.234205	0.987589	0.195492	-0.313421	0.909855	0.725775	-0.148076	1.00185	0.678294	-0.165149	0.988543	0.571337	-0.187134	1.07735	0.0682785	-0.33699	0.828269	1.33389	-0.0780443	0.747442	1.30595	-0.116078	0.744793	1.24278	-0.0459061
81	1.57	0.868843	1.44638	-0.324354	1.00402	1.34051	-0.305743	0.925545	1.42102	-0.478177	0.918935	0.917702	-0.439681	0.505484	0.555696	-0.370324	1.00697	1.08853	-0.503996	0.923365	1.14296	-0.606718	1.01295	1.05381	-0.559601	0.81481	1.15562	-0.657052	0.777977	1.1282	-0.597796	0.398732	0.431116	-0.488475	0.750939	0.975184	-0.381761	0.776967	0.395524	-0.403851	0.750474	0.435893	-0.441703	0.588694	0.441655	-0.395119	0.879501	0.72199	-0.487195	0.929427	0.615591	-0.477915	0.873354	0.5142	-0.468286	0.39492	0.368693	-0.397963	0.864977	1.31979	-0.570685	0.800968	1.26318	-0.549403	0.843454	1.23081	-0.621244	0.908789	1.40977	-0.177007	0.902696	0.954172	-0.202065	0.817477	0.109411	-0.338602	0.894348	1.04067	-0.0851259	0.796034	1.10796	-0.0151937	0.846536	0.992328	-0.0606806	0.705681	1.18231	-0.0127562	0.674947	1.16606	-0.0821805	0.98072	0.0509168	-0.237401	0.736919	0.98261	-0.291538	1.02194	0.360774	-0.274485	0.962089	0.278752	-0.236404	0.954279	0.189124	-0.311343	0.905688	0.722292	-0.148856	0.993932	0.670996	-0.166633	0.977189	0.564341	-0.189279	1.03916	0.0677929	-0.336165	0.833922	1.32163	-0.0779063	0.751656	1.29075	-0.110114	0.757058	1.22818	-0.039894
82	1.58	0.867476	1.4435	-0.327272	1.00265	1.33648	-0.306948	0.925493	1.41751	-0.479524	0.915977	0.914892	-0.438932	0.532253	0.553214	-0.373955	0.992867	1.07753	-0.510054	0.910775	1.13806	-0.608002	0.995347	1.04574	-0.56718	0.801093	1.15594	-0.654478	0.765141	1.12988	-0.594045	0.434869	0.420259	-0.491036	0.748122	0.972785	-0.382504	0.808408	0.396374	-0.400152	0.773042	0.441041	-0.441317	0.620555	0.439349	-0.394545	0.886837	0.720618	-0.487252	0.947608	0.618445	-0.475811	0.899424	0.51409	-0.466972	0.42897	0.361764	-0.397476	0.860853	1.31817	-0.571547	0.795538	1.26451	-0.545872	0.8334	1.23019	-0.619326	0.907787	1.40603	-0.178245	0.898192	0.952594	-0.200114	0.780416	0.109631	-0.338632	0.914297	1.03077	-0.084169	0.817227	1.09622	-0.0116173	0.868525	0.981781	-0.0566267	0.723815	1.16686	-0.00423383	0.689003	1.14837	-0.0706697	0.943438	0.0504681	-0.23763	0.733649	0.980149	-0.291916	0.999475	0.351377	-0.27538	0.940567	0.277069	-0.238404	0.919756	0.182599	-0.311787	0.89924	0.717353	-0.149862	0.983047	0.659634	-0.168244	0.961556	0.555257	-0.192542	1.00215	0.0665352	-0.336378	0.838209	1.31248	-0.0791914	0.75624	1.27682	-0.104845	0.770287	1.21577	-0.0345375
83	1.59	0.864931	1.44148	-0.32904	1.00114	1.33363	-0.308139	0.924931	1.41546	-0.480714	0.912512	0.913929	-0.439546	0.556737	0.54843	-0.377683	0.979584	1.0688	-0.515996	0.898659	1.13408	-0.609025	0.978437	1.03985	-0.574655	0.787895	1.15754	-0.651544	0.753131	1.13271	-0.589954	0.471262	0.406104	-0.493036	0.745669	0.972024	-0.38324	0.840706	0.399483	-0.396321	0.795597	0.446485	-0.441095	0.652073	0.436813	-0.393704	0.893195	0.721143	-0.487207	0.96527	0.624703	-0.473687	0.925669	0.51765	-0.465232	0.46507	0.350805	-0.396993	0.85649	1.3176	-0.572336	0.790195	1.26714	-0.543457	0.823848	1.23058	-0.617217	0.907442	1.40336	-0.179172	0.894574	0.949618	-0.200167	0.744105	0.110072	-0.33913	0.935098	1.02473	-0.0847928	0.838585	1.08746	-0.00854879	0.891984	0.975077	-0.0541035	0.742569	1.15444	0.00328502	0.704783	1.13372	-0.0602838	0.906952	0.0507743	-0.238206	0.73029	0.979546	-0.290482	0.975188	0.344072	-0.277539	0.916128	0.274655	-0.240054	0.885592	0.178226	-0.314515	0.89038	0.712247	-0.151038	0.970744	0.648364	-0.169818	0.944729	0.546705	-0.195599	0.965829	0.0656246	-0.337223	0.841079	1.30693	-0.0807502	0.761789	1.26459	-0.100423	0.783969	1.20605	-0.029867
84	1.6	0.862464	1.44099	-0.329026	0.999455	1.33235	-0.309406	0.923457	1.41494	-0.481655	0.908743	0.914712	-0.441054	0.579052	0.540941	-0.38116	0.967057	1.06189	-0.521674	0.886739	1.13161	-0.609558	0.962185	1.03572	-0.581934	0.775236	1.1606	-0.648636	0.741809	1.1367	-0.586104	0.50738	0.389553	-0.494436	0.743381	0.972724	-0.383857	0.87321	0.404857	-0.392555	0.818071	0.452085	-0.441029	0.68264	0.433834	-0.392684	0.899211	0.723748	-0.486741	0.981383	0.634508	-0.471645	0.950828	0.525159	-0.463074	0.502939	0.336447	-0.396885	0.851491	1.31833	-0.572705	0.784307	1.27067	-0.541857	0.814634	1.23216	-0.615229	0.907599	1.40208	-0.179745	0.891564	0.946387	-0.201567	0.708341	0.110874	-0.33965	0.956082	1.02386	-0.0869333	0.859614	1.0825	-0.00628569	0.916186	0.973082	-0.0534726	0.761291	1.14564	0.00953874	0.721749	1.1227	-0.0516916	0.870864	0.0514208	-0.238499	0.727287	0.98058	-0.288185	0.949403	0.338765	-0.279779	0.889046	0.271864	-0.241231	0.852626	0.176209	-0.317016	0.879711	0.708287	-0.152281	0.958027	0.640292	-0.171266	0.928125	0.540396	-0.197498	0.929927	0.0653832	-0.337962	0.843717	1.30462	-0.0815361	0.768858	1.25472	-0.0971107	0.797741	1.19946	-0.0259445
85	1.61	0.860901	1.44207	-0.328194	0.997716	1.33274	-0.310761	0.921172	1.41576	-0.482356	0.905016	0.91702	-0.442898	0.599895	0.530374	-0.384142	0.954563	1.05655	-0.526265	0.874738	1.13129	-0.60968	0.945996	1.03331	-0.588241	0.763053	1.16528	-0.646084	0.730703	1.14216	-0.582751	0.54323	0.37112	-0.495246	0.741155	0.97465	-0.384383	0.905254	0.412391	-0.388983	0.840395	0.457681	-0.441092	0.712514	0.429917	-0.392056	0.905262	0.728601	-0.485875	0.995509	0.647252	-0.469754	0.974038	0.536259	-0.460498	0.542371	0.319524	-0.397046	0.845788	1.32062	-0.572592	0.777836	1.27522	-0.540297	0.805615	1.23529	-0.613553	0.907918	1.40252	-0.180182	0.889026	0.9442	-0.203469	0.673136	0.112068	-0.340186	0.97667	1.0287	-0.090347	0.88023	1.08204	-0.00537886	0.940546	0.976084	-0.0550779	0.779627	1.14059	0.0143783	0.739063	1.11538	-0.0450307	0.835085	0.0518775	-0.238417	0.725444	0.982954	-0.286269	0.922361	0.334349	-0.281149	0.86019	0.269268	-0.241951	0.82056	0.175435	-0.317629	0.868239	0.706064	-0.15345	0.945139	0.635809	-0.172647	0.911279	0.536594	-0.19813	0.894425	0.0654235	-0.338296	0.847901	1.30462	-0.0812121	0.777433	1.24806	-0.0948164	0.811396	1.19619	-0.0228974
86	1.62	0.859995	1.44425	-0.327843	0.996195	1.33464	-0.31217	0.91833	1.41769	-0.482942	0.901764	0.920633	-0.444556	0.620069	0.516618	-0.386492	0.941647	1.0531	-0.528978	0.862482	1.13342	-0.609885	0.92938	1.03296	-0.592787	0.751126	1.17173	-0.644015	0.719417	1.1494	-0.579848	0.579417	0.3511	-0.495526	0.739034	0.977553	-0.385005	0.936192	0.421877	-0.385669	0.862503	0.463102	-0.441249	0.742294	0.424753	-0.392272	0.911327	0.7358	-0.484968	1.00778	0.662088	-0.468019	0.995006	0.550203	-0.457607	0.583359	0.300863	-0.397095	0.839478	1.32454	-0.572149	0.771198	1.28105	-0.538208	0.796625	1.24025	-0.612279	0.908234	1.40486	-0.180692	0.886953	0.943683	-0.205194	0.638389	0.11382	-0.34094	0.99631	1.03882	-0.0947492	0.900204	1.08616	-0.00609027	0.964574	0.983827	-0.0589548	0.797281	1.13902	0.0177869	0.755951	1.11143	-0.0400728	0.799475	0.0520333	-0.23826	0.724807	0.986343	-0.285522	0.894393	0.330198	-0.281765	0.830484	0.267369	-0.242403	0.788412	0.175077	-0.316863	0.856922	0.70539	-0.154472	0.931804	0.633269	-0.174142	0.893119	0.534501	-0.198179	0.859145	0.0653742	-0.338369	0.854716	1.30614	-0.0802385	0.786857	1.24534	-0.092759	0.82477	1.19601	-0.0208314
